<svg xmlns="http://www.w3.org/2000/svg" version="1.1" xmlns:xlink="http://www.w3.org/1999/xlink" xmlns:svgjs="http://svgjs.dev/svgjs" width="1920" height="1080" preserveAspectRatio="none" viewBox="0 0 1920 1080"><g mask="url(&quot;#SvgjsMask1003&quot;)" fill="none"><rect width="1920" height="1080" x="0" y="0" fill="rgba(20, 20, 20, 1)"></rect><path d="M0,672.658C134.064,666.356,272.794,672.513,388.571,604.628C506.654,535.391,594.168,421.653,644.909,294.52C694.258,170.876,709.019,30.649,668.236,-96.078C630.194,-214.286,511.704,-279.083,430.169,-372.744C348.872,-466.132,306.866,-605.994,189.64,-645.853C71.888,-685.891,-48.056,-604.309,-169.297,-576.572C-299.857,-546.703,-446.62,-561.708,-550.059,-476.629C-659.466,-386.641,-743.398,-248.148,-740.798,-106.511C-738.259,31.782,-592.308,118.46,-536.81,245.153C-480.012,374.812,-523.51,554.114,-412.78,642.298C-302.626,730.022,-140.662,679.27,0,672.658" fill="#171717"></path><path d="M1920 1553.938C2030.265 1570.2640000000001 2152.405 1647.8029999999999 2245.938 1587.1689999999999 2339.543 1526.488 2322.107 1384.164 2348.922 1275.882 2370.685 1187.999 2406.05 1101.444 2388.202 1012.683 2370.831 926.294 2312.031 856.808 2251.734 792.5509999999999 2193.412 730.399 2125.956 679.8969999999999 2046.643 648.692 1961.608 615.235 1868.28 579.5989999999999 1781.244 607.4390000000001 1694.677 635.129 1659.77 735.617 1590.592 794.566 1504.839 867.638 1357.096 886.201 1326.772 994.707 1297.0819999999999 1100.945 1391.345 1201.391 1450.959 1294.204 1503.563 1376.104 1565.547 1451.883 1650.701 1499.037 1732.502 1544.335 1827.502 1540.243 1920 1553.938" fill="#1b1b1b"></path></g><defs><mask id="SvgjsMask1003"><rect width="1920" height="1080" fill="#ffffff"></rect></mask></defs></svg>